# xmcd
#
# Track frame offsets:
#	150
#	20482
#	35212
#	51704
#	70440
#	88615
#	102828
#	117179
#	132631
#	146035
#	169362
#	185504
#	203517
#	219538
#	236822
#	256611
#	275283
#	291183
#	308961
#	324753
#	342132
#
# Disc length: 4819
#
# Revision: 1
# Processed by: cddbd v1.5.1PL0 Copyright (c) Steve Scherf et al.
# Submitted via: audiograbber 1.83.01
# Normalized: r0:DSETVAR2
#
DISCID=4812d115
DTITLE=Various Artist - HI-END Dancing CD-2
DYEAR=2000
DGENRE=Dance
TTITLE0=2 Eivissa - Viva La Fiesta (Loko Remix)
TTITLE1=Jackie Moore - Nah Neh Nah (Nah Nah Mix)
TTITLE2=Mondo Club - Sex Up My Life (Radio Edit)
TTITLE3=DJ Mendez - Fiesta (Extended Version)
TTITLE4=Santa Esmeralda - Don`t Let Me Be Misunderstood 2000 (Club Mix)
TTITLE5=Kylie Minogue - Spinning Around (Radio Edit)
TTITLE6=Jody Barnal - Que Si, Que No (Radio Mix)
TTITLE7=Alice Deejay - The Lonely One (XXL Version)
TTITLE8=Party People - It`s Your Time (Extended Version)
TTITLE9=No Mercy - Morena (Extended Version)
TTITLE10=Costanzo - Azzurro 2000 (Extended Version)
TTITLE11=Anastacia - I`m Outta Love
TTITLE12=Rollergirl - You Make Me Feel Like Dancing (Club Mix)
TTITLE13=Rednex - The Spirit Of The Hawk (Radio Mix)
TTITLE14=Female - Lambada 2000 (Mike Tee Remix)
TTITLE15=Britney and Eminem - Oops!... Slim Shady (Short Edit)
TTITLE16=Paola and Chiara - Vamos A Bailar (Remix)
TTITLE17=Soundtrax - Man No. 3 (Extended Version)
TTITLE18=Tatjana - Baila Baila (Dance Edit)
TTITLE19=Coco Caribe - La Bomba (Extended Version)
TTITLE20=Redford - I Like Chopin (Extended Version)
EXTD=
EXTT0=
EXTT1=
EXTT2=
EXTT3=
EXTT4=
EXTT5=
EXTT6=
EXTT7=
EXTT8=
EXTT9=
EXTT10=
EXTT11=
EXTT12=
EXTT13=
EXTT14=
EXTT15=
EXTT16=
EXTT17=
EXTT18=
EXTT19=
EXTT20=
PLAYORDER=
